<svg width="256" height="256" viewBox="0 0 256 256" fill="none" xmlns="http://www.w3.org/2000/svg">
<g id="Comprehensive - white">
<path id="Stroke 7" fill-rule="evenodd" clip-rule="evenodd" d="M163.999 32C179.464 32 192 44.5367 192 59.9995C192 75.4631 179.464 88 163.999 88C148.536 88 136 75.4628 136 59.9995C136 44.5369 148.536 32 163.999 32ZM163.999 72C170.627 72 176 66.6267 176 59.9995C176 53.3732 170.627 48 163.999 48C157.373 48 152 53.3733 152 59.9995C152 66.6266 157.373 72 163.999 72Z" fill="#009FDF"/>
<path id="Union" fill-rule="evenodd" clip-rule="evenodd" d="M216 112H118.777L111.891 70.6848L96.1089 73.3152L102.556 112H40L56 224H200L216 112ZM58.4482 128L63.0196 160H86.5564L81.223 128H58.4482ZM97.4437 128L102.777 160H153.223L158.556 128H97.4437ZM174.777 128L169.444 160H192.98L197.552 128H174.777ZM150.556 176H105.444L110.777 208H145.223L150.556 176ZM161.444 208L166.777 176H190.695L186.123 208H161.444ZM89.223 176H65.3053L69.8767 208H94.5564L89.223 176Z" fill="#111111"/>
</g>
</svg>
